# xmcd
# Copyright (C) 1995-1998 Ti Kan
#
# Track frame offsets:
#       150
#       61187
#       62838
#
# Disc length: 1588 seconds
#
# Revision: 0
# Processed by: cddbd v1.5.2PL0 Copyright (c) Steve Scherf et al.
# Submitted via: CD-Import v1.0
#
DISCID=22063203
DTITLE=Jinglor - Elvis Cup Jingles
DYEAR=12
DGENRE=
TTITLE0=Elvis Cup Beet
TTITLE1=Elvis Cup Jingle
TTITLE2=Elvis Cup Stadion Geräusch
EXTD=
EXTT0=
EXTT1=
EXTT2=
PLAYORDER=
